<svg xmlns="http://www.w3.org/2000/svg" viewBox="0 0 1024 1024">
  <defs>
    <style>
      :root{--ring:#7fc3ff;--core:#c7e8ff}
    </style>
    <radialGradient id="coreGlow" cx="50%" cy="50%" r="50%">
      <stop offset="0%" stop-color="var(--core)" stop-opacity="0.72"/>
      <stop offset="24%" stop-color="var(--core)" stop-opacity="0.34"/>
      <stop offset="56%" stop-color="var(--ring)" stop-opacity="0.18"/>
      <stop offset="100%" stop-color="var(--ring)" stop-opacity="0"/>
    </radialGradient>
    <radialGradient id="edgeFade" cx="50%" cy="50%" r="50%">
      <stop offset="0%" stop-color="#fff" stop-opacity="1"/>
      <stop offset="80%" stop-color="#fff" stop-opacity="0.92"/>
      <stop offset="100%" stop-color="#fff" stop-opacity="0"/>
    </radialGradient>
    <mask id="fieldFade">
      <rect width="1024" height="1024" fill="url(#edgeFade)"/>
    </mask>
  </defs>
  <rect width="1024" height="1024" fill="none"/>
  <circle cx="512" cy="512" r="286" fill="url(#coreGlow)"/>
  <g fill="none" stroke="var(--ring)">
    <circle cx="512" cy="512" r="188" stroke-opacity="0.34" stroke-width="2.6"/>
    <circle cx="512" cy="512" r="226" stroke-opacity="0.26" stroke-width="1.8"/>
    <circle cx="512" cy="512" r="266" stroke-opacity="0.18" stroke-width="1.2"/>
  </g>
  <g transform="translate(512 512)" fill="var(--ring)" fill-opacity="0.13" mask="url(#fieldFade)">
    <g id="ringCells">
      <rect x="-6.5" y="-246" width="13" height="13" rx="2.2"/>
      <rect x="-6.5" y="-246" width="13" height="13" rx="2.2" transform="rotate(7.5)"/>
      <rect x="-6.5" y="-246" width="13" height="13" rx="2.2" transform="rotate(15)"/>
      <rect x="-6.5" y="-246" width="13" height="13" rx="2.2" transform="rotate(22.5)"/>
      <rect x="-6.5" y="-246" width="13" height="13" rx="2.2" transform="rotate(30)"/>
      <rect x="-6.5" y="-246" width="13" height="13" rx="2.2" transform="rotate(37.5)"/>
      <rect x="-6.5" y="-246" width="13" height="13" rx="2.2" transform="rotate(45)"/>
      <rect x="-6.5" y="-246" width="13" height="13" rx="2.2" transform="rotate(52.5)"/>
      <rect x="-6.5" y="-246" width="13" height="13" rx="2.2" transform="rotate(60)"/>
      <rect x="-6.5" y="-246" width="13" height="13" rx="2.2" transform="rotate(67.5)"/>
      <rect x="-6.5" y="-246" width="13" height="13" rx="2.2" transform="rotate(75)"/>
      <rect x="-6.5" y="-246" width="13" height="13" rx="2.2" transform="rotate(82.5)"/>
      <rect x="-6.5" y="-246" width="13" height="13" rx="2.2" transform="rotate(90)"/>
      <rect x="-6.5" y="-246" width="13" height="13" rx="2.2" transform="rotate(97.5)"/>
      <rect x="-6.5" y="-246" width="13" height="13" rx="2.2" transform="rotate(105)"/>
      <rect x="-6.5" y="-246" width="13" height="13" rx="2.2" transform="rotate(112.5)"/>
      <rect x="-6.5" y="-246" width="13" height="13" rx="2.2" transform="rotate(120)"/>
      <rect x="-6.5" y="-246" width="13" height="13" rx="2.2" transform="rotate(127.5)"/>
      <rect x="-6.5" y="-246" width="13" height="13" rx="2.2" transform="rotate(135)"/>
      <rect x="-6.5" y="-246" width="13" height="13" rx="2.2" transform="rotate(142.5)"/>
      <rect x="-6.5" y="-246" width="13" height="13" rx="2.2" transform="rotate(150)"/>
      <rect x="-6.5" y="-246" width="13" height="13" rx="2.2" transform="rotate(157.5)"/>
      <rect x="-6.5" y="-246" width="13" height="13" rx="2.2" transform="rotate(165)"/>
      <rect x="-6.5" y="-246" width="13" height="13" rx="2.2" transform="rotate(172.5)"/>
      <rect x="-6.5" y="-246" width="13" height="13" rx="2.2" transform="rotate(180)"/>
      <rect x="-6.5" y="-246" width="13" height="13" rx="2.2" transform="rotate(187.5)"/>
      <rect x="-6.5" y="-246" width="13" height="13" rx="2.2" transform="rotate(195)"/>
      <rect x="-6.5" y="-246" width="13" height="13" rx="2.2" transform="rotate(202.5)"/>
      <rect x="-6.5" y="-246" width="13" height="13" rx="2.2" transform="rotate(210)"/>
      <rect x="-6.5" y="-246" width="13" height="13" rx="2.2" transform="rotate(217.5)"/>
      <rect x="-6.5" y="-246" width="13" height="13" rx="2.2" transform="rotate(225)"/>
      <rect x="-6.5" y="-246" width="13" height="13" rx="2.2" transform="rotate(232.5)"/>
      <rect x="-6.5" y="-246" width="13" height="13" rx="2.2" transform="rotate(240)"/>
      <rect x="-6.5" y="-246" width="13" height="13" rx="2.2" transform="rotate(247.5)"/>
      <rect x="-6.5" y="-246" width="13" height="13" rx="2.2" transform="rotate(255)"/>
      <rect x="-6.5" y="-246" width="13" height="13" rx="2.2" transform="rotate(262.5)"/>
      <rect x="-6.5" y="-246" width="13" height="13" rx="2.2" transform="rotate(270)"/>
      <rect x="-6.5" y="-246" width="13" height="13" rx="2.2" transform="rotate(277.5)"/>
      <rect x="-6.5" y="-246" width="13" height="13" rx="2.2" transform="rotate(285)"/>
      <rect x="-6.5" y="-246" width="13" height="13" rx="2.2" transform="rotate(292.5)"/>
      <rect x="-6.5" y="-246" width="13" height="13" rx="2.2" transform="rotate(300)"/>
      <rect x="-6.5" y="-246" width="13" height="13" rx="2.2" transform="rotate(307.5)"/>
      <rect x="-6.5" y="-246" width="13" height="13" rx="2.2" transform="rotate(315)"/>
      <rect x="-6.5" y="-246" width="13" height="13" rx="2.2" transform="rotate(322.5)"/>
      <rect x="-6.5" y="-246" width="13" height="13" rx="2.2" transform="rotate(330)"/>
      <rect x="-6.5" y="-246" width="13" height="13" rx="2.2" transform="rotate(337.5)"/>
      <rect x="-6.5" y="-246" width="13" height="13" rx="2.2" transform="rotate(345)"/>
      <rect x="-6.5" y="-246" width="13" height="13" rx="2.2" transform="rotate(352.5)"/>
    </g>
    <g transform="scale(0.64)"><use href="#ringCells"/></g>
    <g transform="scale(0.76)"><use href="#ringCells"/></g>
    <g transform="scale(0.88)"><use href="#ringCells"/></g>
    <g transform="scale(1.00)"><use href="#ringCells"/></g>
    <g transform="scale(1.12)"><use href="#ringCells"/></g>
    <g transform="scale(1.24)"><use href="#ringCells"/></g>
    <g transform="scale(1.36)"><use href="#ringCells"/></g>
    <g transform="scale(1.48)"><use href="#ringCells"/></g>
    <g transform="scale(1.60)"><use href="#ringCells"/></g>
    <g transform="scale(1.72)"><use href="#ringCells"/></g>
    <g transform="scale(1.84)"><use href="#ringCells"/></g>
  </g>
  <g transform="translate(512 512) rotate(3.75)" fill="var(--ring)" fill-opacity="0.07" mask="url(#fieldFade)">
    <g transform="scale(0.82)"><use href="#ringCells"/></g>
    <g transform="scale(1.06)"><use href="#ringCells"/></g>
    <g transform="scale(1.30)"><use href="#ringCells"/></g>
    <g transform="scale(1.54)"><use href="#ringCells"/></g>
    <g transform="scale(1.78)"><use href="#ringCells"/></g>
  </g>
</svg>
