<svg xmlns="http://www.w3.org/2000/svg" viewBox="0 0 1024 1024">
  <defs>
    <style>
      :root{ --ring:#7fc3ff; --core:#9ad6ff; --op:.08; }
    </style>
    <radialGradient id="core" cx="50%" cy="50%" r="50%">
      <stop offset="0%" stop-color="var(--core)" stop-opacity="0.35"/>
      <stop offset="55%" stop-color="var(--ring)" stop-opacity="0.14"/>
      <stop offset="100%" stop-color="var(--ring)" stop-opacity="0"/>
    </radialGradient>
  </defs>
  <rect width="1024" height="1024" fill="none"/>
  <!-- inner glow -->
  <circle cx="512" cy="512" r="200" fill="url(#core)"/>
  <!-- double inner ring strokes -->
  <g stroke="var(--ring)" stroke-opacity="0.22" fill="none">
    <circle cx="512" cy="512" r="215" stroke-width="2"/>
    <circle cx="512" cy="512" r="245" stroke-width="1.2"/>
  </g>
  <!-- lattice: 48 cells per ring, 7 rings, concentric scaling -->
  <g transform="translate(512 512)" fill="var(--ring)" fill-opacity="var(--op)">
    <g id="cells48">
      <!-- 48 = 360 / 7.5 -->
      <rect x="-7" y="-280" width="14" height="14" rx="2"/>
      <rect x="-7" y="-280" width="14" height="14" rx="2" transform="rotate(7.5)"/>
      <rect x="-7" y="-280" width="14" height="14" rx="2" transform="rotate(15)"/>
      <rect x="-7" y="-280" width="14" height="14" rx="2" transform="rotate(22.5)"/>
      <rect x="-7" y="-280" width="14" height="14" rx="2" transform="rotate(30)"/>
      <rect x="-7" y="-280" width="14" height="14" rx="2" transform="rotate(37.5)"/>
      <rect x="-7" y="-280" width="14" height="14" rx="2" transform="rotate(45)"/>
      <rect x="-7" y="-280" width="14" height="14" rx="2" transform="rotate(52.5)"/>
      <rect x="-7" y="-280" width="14" height="14" rx="2" transform="rotate(60)"/>
      <rect x="-7" y="-280" width="14" height="14" rx="2" transform="rotate(67.5)"/>
      <rect x="-7" y="-280" width="14" height="14" rx="2" transform="rotate(75)"/>
      <rect x="-7" y="-280" width="14" height="14" rx="2" transform="rotate(82.5)"/>
      <rect x="-7" y="-280" width="14" height="14" rx="2" transform="rotate(90)"/>
      <rect x="-7" y="-280" width="14" height="14" rx="2" transform="rotate(97.5)"/>
      <rect x="-7" y="-280" width="14" height="14" rx="2" transform="rotate(105)"/>
      <rect x="-7" y="-280" width="14" height="14" rx="2" transform="rotate(112.5)"/>
      <rect x="-7" y="-280" width="14" height="14" rx="2" transform="rotate(120)"/>
      <rect x="-7" y="-280" width="14" height="14" rx="2" transform="rotate(127.5)"/>
      <rect x="-7" y="-280" width="14" height="14" rx="2" transform="rotate(135)"/>
      <rect x="-7" y="-280" width="14" height="14" rx="2" transform="rotate(142.5)"/>
      <rect x="-7" y="-280" width="14" height="14" rx="2" transform="rotate(150)"/>
      <rect x="-7" y="-280" width="14" height="14" rx="2" transform="rotate(157.5)"/>
      <rect x="-7" y="-280" width="14" height="14" rx="2" transform="rotate(165)"/>
      <rect x="-7" y="-280" width="14" height="14" rx="2" transform="rotate(172.5)"/>
      <rect x="-7" y="-280" width="14" height="14" rx="2" transform="rotate(180)"/>
      <rect x="-7" y="-280" width="14" height="14" rx="2" transform="rotate(187.5)"/>
      <rect x="-7" y="-280" width="14" height="14" rx="2" transform="rotate(195)"/>
      <rect x="-7" y="-280" width="14" height="14" rx="2" transform="rotate(202.5)"/>
      <rect x="-7" y="-280" width="14" height="14" rx="2" transform="rotate(210)"/>
      <rect x="-7" y="-280" width="14" height="14" rx="2" transform="rotate(217.5)"/>
      <rect x="-7" y="-280" width="14" height="14" rx="2" transform="rotate(225)"/>
      <rect x="-7" y="-280" width="14" height="14" rx="2" transform="rotate(232.5)"/>
      <rect x="-7" y="-280" width="14" height="14" rx="2" transform="rotate(240)"/>
      <rect x="-7" y="-280" width="14" height="14" rx="2" transform="rotate(247.5)"/>
      <rect x="-7" y="-280" width="14" height="14" rx="2" transform="rotate(255)"/>
      <rect x="-7" y="-280" width="14" height="14" rx="2" transform="rotate(262.5)"/>
      <rect x="-7" y="-280" width="14" height="14" rx="2" transform="rotate(270)"/>
      <rect x="-7" y="-280" width="14" height="14" rx="2" transform="rotate(277.5)"/>
      <rect x="-7" y="-280" width="14" height="14" rx="2" transform="rotate(285)"/>
      <rect x="-7" y="-280" width="14" height="14" rx="2" transform="rotate(292.5)"/>
      <rect x="-7" y="-280" width="14" height="14" rx="2" transform="rotate(300)"/>
      <rect x="-7" y="-280" width="14" height="14" rx="2" transform="rotate(307.5)"/>
      <rect x="-7" y="-280" width="14" height="14" rx="2" transform="rotate(315)"/>
      <rect x="-7" y="-280" width="14" height="14" rx="2" transform="rotate(322.5)"/>
      <rect x="-7" y="-280" width="14" height="14" rx="2" transform="rotate(330)"/>
      <rect x="-7" y="-280" width="14" height="14" rx="2" transform="rotate(337.5)"/>
      <rect x="-7" y="-280" width="14" height="14" rx="2" transform="rotate(345)"/>
      <rect x="-7" y="-280" width="14" height="14" rx="2" transform="rotate(352.5)"/>
    </g>
    <g transform="scale(0.85)"><use href="#cells48"/></g>
    <g transform="scale(1.0)"><use href="#cells48"/></g>
    <g transform="scale(1.18)"><use href="#cells48"/></g>
    <g transform="scale(1.36)"><use href="#cells48"/></g>
    <g transform="scale(1.54)"><use href="#cells48"/></g>
    <g transform="scale(1.72)"><use href="#cells48"/></g>
    <g transform="scale(1.90)"><use href="#cells48"/></g>
  </g>
</svg>
